<?xml version="1.0" encoding="iso-8859-1"?>
<!-- Generator: Adobe Illustrator 21.1.0, SVG Export Plug-In . SVG Version: 6.00 Build 0)  -->
<svg version="1.1" id="Layer_1" xmlns="http://www.w3.org/2000/svg" xmlns:xlink="http://www.w3.org/1999/xlink" x="0px" y="0px"
	 viewBox="0 0 214 144" style="enable-background:new 0 0 214 144;" xml:space="preserve">
<g>
	<path d="M205.578,45.273c0.035,0.586-0.008,1.188-0.156,1.782l-13.199,52.8c-0.668,2.661-3.051,4.532-5.793,4.543l-79.2,0.403H28
		c-2.754,0-5.156-1.879-5.82-4.551l-13.203-53c-0.149-0.613-0.196-1.227-0.157-1.832C3.715,43.809,0,39.031,0,33.398
		c0-6.945,5.652-12.597,12.602-12.597c6.945,0,12.597,5.652,12.597,12.597c0,3.914-1.793,7.414-4.597,9.727l16.523,16.652
		c4.18,4.211,9.973,6.621,15.902,6.621c7.012,0,13.7-3.328,17.907-8.906l27.16-35.988c-2.282-2.281-3.696-5.43-3.696-8.902
		C94.398,5.652,100.051,0,107,0c6.949,0,12.602,5.652,12.602,12.602c0,3.367-1.34,6.425-3.5,8.691
		c0.003,0.008,0.015,0.016,0.023,0.027l26.961,36.086c4.207,5.633,10.918,8.992,17.949,8.992c5.985,0,11.61-2.328,15.84-6.562
		l16.633-16.629c-2.867-2.312-4.707-5.848-4.707-9.809c0-6.945,5.652-12.597,12.597-12.597c6.95,0,12.602,5.652,12.602,12.597
		C214,38.879,210.477,43.543,205.578,45.273L205.578,45.273z M190.934,123.602c0-3.317-2.688-6-6-6h-155.2c-3.312,0-6,2.683-6,6V138
		c0,3.312,2.688,6,6,6h155.2c3.312,0,6-2.688,6-6V123.602z M190.934,123.602" fill="#ffffff"/>
</g>
</svg>
