<?xml version="1.0" encoding="UTF-8"?>
<!DOCTYPE svg PUBLIC "-//W3C//DTD SVG 1.1//EN" "http://www.w3.org/Graphics/SVG/1.1/DTD/svg11.dtd">
<!-- Creator: CorelDRAW X7 -->
<svg xmlns="http://www.w3.org/2000/svg" xml:space="preserve" width="162.483mm" height="56.1859mm" version="1.1" style="shape-rendering:geometricPrecision; text-rendering:geometricPrecision; image-rendering:optimizeQuality; fill-rule:evenodd; clip-rule:evenodd"
viewBox="0 0 15955 5517"
 xmlns:xlink="http://www.w3.org/1999/xlink">
 <defs>
  <style type="text/css">
   <![CDATA[
    .fil0 {fill:#04B290}
    .fil1 {fill:#04B290}
    .fil3 {fill:white}
    .fil2 {fill:white;fill-rule:nonzero}
   ]]>
  </style>
 </defs>
 <g id="Layer_x0020_1">
  <metadata id="CorelCorpID_0Corel-Layer"/>
  <g id="_361457800">
   <path class="fil0" d="M111 3517l1190 1190c71,72 165,111 266,111l1683 0c99,0 195,-39 267,-111l1189 -1190c72,-71 112,-165 112,-266l0 -1683c0,-99 -40,-195 -112,-267l-1192 -1187c-71,-72 -165,-111 -266,-111l-1683 0c-99,0 -195,39 -267,111l-1187 1190c-72,69 -111,165 -111,264l0 1683c0,101 39,195 111,266zm1481 -3166l-1197 1197c-37,37 -37,96 0,133l0 0c37,37 96,37 133,0l1464 -1463c17,-18 42,-27 66,-27l0 0c84,0 126,101 67,160l-1464 1461c-37,37 -37,96 0,133l0 0c37,37 97,37 134,0l1727 -1727c18,-18 42,-27 67,-27l0 0c84,0 126,101 67,160l-1728 1728c-37,37 -37,96 0,133l0 0c37,37 96,37 133,0l1933 -1933c56,-56 130,-86 209,-86l0 0c79,0 156,32 210,86l1185 1185c17,17 27,42 27,67l0 0c0,84 -101,126 -160,66l-1195 -1199c-37,-37 -96,-37 -133,0l0 0c-37,37 -37,96 0,133l1463 1464c18,17 28,42 28,66l0 0c0,84 -102,126 -161,67l-1463 -1464c-37,-37 -97,-37 -134,0l0 0c-37,37 -37,97 0,134l1728 1727c17,18 27,42 27,67l0 0c0,84 -101,126 -160,67l-1728 -1728c-37,-37 -96,-37 -133,0l0 0c-37,37 -37,96 0,133l1932 1933c57,56 87,130 87,209l0 0c0,79 -33,156 -87,210l-1184 1185c-18,17 -42,27 -67,27l0 0c-84,0 -126,-101 -67,-160l1197 -1197c37,-37 37,-97 0,-134l0 0c-37,-37 -96,-37 -133,0l-1464 1464c-17,17 -41,27 -66,27l0 0c-84,0 -126,-101 -67,-160l1464 -1464c37,-37 37,-96 0,-133l0 0c-37,-37 -97,-37 -134,0l-1727 1727c-17,18 -42,28 -67,28l0 0c-84,0 -126,-102 -66,-161l1727 -1727c37,-38 37,-97 0,-134l0 0c-37,-37 -96,-37 -133,0l-1933 1933c-56,56 -130,86 -209,86l0 0c-79,0 -156,-32 -210,-86l-1185 -1185c-17,-17 -27,-42 -27,-67l0 0c0,-84 101,-125 161,-66l1199 1202c37,37 96,37 133,0l0 0c37,-37 37,-97 0,-134l-1463 -1461c-18,-17 -27,-42 -27,-66l0 0c0,-84 101,-126 160,-67l1464 1464c37,37 96,37 133,0l0 0c37,-37 37,-97 0,-134l-1728 -1727c-17,-18 -27,-42 -27,-67l0 0c0,-84 101,-126 160,-67l1728 1728c37,37 96,37 133,0l0 0c37,-37 37,-96 0,-133l-1937 -1933c-57,-56 -86,-130 -86,-209l0 0c0,-79 32,-156 86,-210l1185 -1185c17,-17 42,-27 66,-27l0 0c84,-2 126,99 67,158z"/>
   <path class="fil1" d="M7359 2839c-38,178 -532,724 -721,884 -939,692 156,-776 721,-884zm3083 -709c345,59 -558,730 -377,380 29,-43 219,-352 377,-380zm-1067 178c70,-121 233,-301 388,-296 -4,138 -268,268 -388,296zm-1590 -280c-8,79 -297,561 -366,600 -2031,1142 -1291,2264 -101,505 151,-223 213,-415 450,-523 143,-65 557,-259 681,-291 -33,65 -22,57 -110,239 -151,571 421,-133 494,-215 62,-69 164,-157 238,-214 403,-317 331,-137 158,180 -32,59 -115,41 -87,141 24,85 -9,115 47,201 177,273 507,60 708,2 23,41 50,94 99,106 151,36 302,-136 404,-215 46,22 94,206 195,192 37,-74 -166,-164 64,-444 96,-117 -154,-322 -299,-281 -122,34 -254,203 -320,303 -9,14 -129,178 -130,179 -104,97 -583,299 -627,61 -18,-101 68,-126 149,-150 138,-42 295,-121 394,-230 39,-42 89,-177 51,-223 -125,-150 -326,19 -430,81 -17,-56 -19,-126 -78,-145 -123,-41 -364,175 -458,242 -93,67 -214,204 -286,244 7,-25 76,-184 87,-197 39,-46 140,-65 147,-138l-82 9c23,-35 73,-72 80,-112 7,-41 -47,-115 -82,-120l-311 421c-27,-2 -680,253 -779,285 1,-2 176,-299 192,-322 70,-102 71,-258 138,-388l-46 -105c-16,1 -2805,1943 -2414,911 247,-653 2131,-2630 2474,-2115 92,137 4,401 -68,534 -88,162 -158,265 -270,409 -129,167 83,340 209,59 151,-339 406,-600 268,-1008 -343,-1008 -2724,1417 -2853,2189 -289,1330 2151,-565 2470,-657z"/>
   <path class="fil1" d="M14917 2663c36,180 -288,403 -355,330 -72,-79 284,-322 355,-330zm-928 59c-39,220 -388,368 -355,226 18,-77 119,-129 171,-179 14,-14 87,-59 107,-70 61,-33 92,-60 77,23zm-934 -434c60,-145 240,-279 390,-298 -8,147 -264,258 -390,298zm-1830 -726l169 -437c243,-16 -152,426 -169,437zm222 -551c137,-325 309,-589 481,-813 75,-99 146,-85 84,43 -62,125 -343,737 -426,755 -3,1 -132,15 -139,15zm-1962 262c29,163 279,79 382,63 151,-23 304,-44 456,-65 279,-40 649,-109 923,-118 -40,168 -160,387 -225,548 -159,392 -468,1285 260,1206 192,-32 315,-169 447,-293 43,-41 153,-143 200,-172 99,-61 248,-204 380,-252 108,-39 89,40 108,132 46,232 155,542 432,411 116,-55 60,-31 161,7 350,129 701,-227 934,-434l41 253c-828,325 -418,770 -21,420 79,-70 136,-142 159,-248 15,-72 -3,-86 77,-123 46,-21 98,-40 145,-61 106,-46 168,-79 263,-143 17,-12 248,-147 256,-150l43 300c-105,98 -464,170 -481,416 -11,154 202,151 293,105 151,-76 292,-167 328,-347 41,-212 811,-361 909,-675 -50,17 -308,206 -411,258 -98,50 -381,207 -479,191 -21,-13 -61,-291 -68,-345 -10,-83 25,-44 35,-98 0,0 -87,11 -21,-86 44,-65 24,-54 88,-84 115,-53 39,-192 -48,-163 -217,71 -218,266 -205,455 -129,48 -563,357 -702,321 -22,-14 -63,-274 -66,-318 -5,-69 34,-75 32,-99 -5,-57 -57,44 -41,-70 7,-50 30,-47 50,-82 36,-66 121,-39 115,-155 -119,-142 -300,56 -306,194 -24,570 -945,829 -969,555 -9,-90 84,-124 156,-145 102,-31 122,-39 215,-94 102,-60 315,-218 227,-360 -84,-136 -337,7 -423,84 -195,178 -313,332 -277,604 -129,115 -275,-52 -307,-208 -30,-148 -13,-338 -217,-350 -115,-6 -457,252 -541,317 -41,32 -110,95 -155,133 67,-117 420,-597 174,-635 -94,159 -417,929 -564,943 -726,-48 182,-1249 354,-1586 43,-85 229,-118 321,-121 1040,-22 2001,-80 3051,-91 -232,-231 -2905,82 -3222,-31 72,-123 467,-790 422,-918 -12,-33 -46,-54 -85,-65 -306,-82 -712,1021 -811,1028 -201,13 -403,49 -605,75 -400,51 -789,106 -1187,166z"/>
   <g>
    <path class="fil2" d="M10316 4069l0 146 218 0 0 81c-55,36 -123,58 -200,58 -153,0 -277,-124 -277,-284 0,-151 124,-275 277,-275 94,0 177,31 234,82l110 -122c-83,-75 -200,-123 -344,-123 -250,0 -455,196 -455,438 0,243 205,439 455,439 148,0 279,-49 374,-126l0 -314 -392 0z"/>
    <polygon id="1" class="fil2" points="10970,4348 10970,4156 11358,4156 11358,4010 10970,4010 10970,3792 11434,3792 11434,3641 10801,3641 10801,4499 11459,4499 11459,4348 "/>
    <polygon id="2" class="fil2" points="12135,3641 12135,4181 11624,3641 11539,3641 11539,4499 11713,4499 11713,3958 12225,4499 12311,4499 12311,3641 "/>
    <polygon id="3" class="fil2" points="12597,4348 12597,4156 12985,4156 12985,4010 12597,4010 12597,3792 13061,3792 13061,3641 12428,3641 12428,4499 13086,4499 13086,4348 "/>
    <path id="4" class="fil2" d="M13503 3990c-129,-29 -190,-55 -190,-116 0,-53 49,-92 136,-92 81,0 186,25 262,57l70 -139c-83,-36 -198,-69 -328,-69 -196,0 -317,107 -317,258 0,169 143,219 319,259 126,29 183,55 183,113 0,64 -56,98 -150,98 -107,0 -186,-11 -299,-66l-64 135c137,68 211,82 357,82 200,0 332,-98 332,-263 0,-157 -126,-216 -311,-257z"/>
    <polygon id="5" class="fil2" points="14070,3641 13895,3641 13895,4499 14070,4499 "/>
    <path id="6" class="fil2" d="M14527 3990c-129,-29 -190,-55 -190,-116 0,-53 49,-92 136,-92 81,0 187,25 262,57l71 -139c-84,-36 -199,-69 -329,-69 -196,0 -316,107 -316,258 0,169 142,219 319,259 125,29 182,55 182,113 0,64 -56,98 -150,98 -107,0 -186,-11 -299,-66l-63 135c136,68 210,82 356,82 200,0 333,-98 333,-263 0,-157 -127,-216 -312,-257z"/>
    <path class="fil3" d="M9073 4626c-111,270 -329,589 -546,783 -29,26 -120,54 -140,7 -101,-207 813,-1099 686,-790zm-625 -296c-24,12 -75,-65 101,-136 85,-35 -39,104 -101,136zm370 -1558c77,-80 97,-108 74,52 -101,235 -323,615 -485,861 -3,5 -96,118 -96,118 53,-162 441,-963 507,-1031zm107 1296c11,-29 47,-65 32,-99 -9,-20 -33,-14 -50,-9 -64,17 -44,159 -149,181 -19,5 -109,13 -116,-3 -13,-25 -7,-59 -34,-94 -45,-59 -146,-27 -202,-5 -121,50 -119,84 -165,109 -162,87 625,-966 744,-1351 10,-34 16,-58 6,-93 -17,-66 -86,-115 -151,-79 -189,106 -520,886 -762,1614 -22,89 59,205 85,161 34,-59 -41,-71 73,-165 77,-63 227,-207 333,-166 23,9 39,68 -14,82 -65,17 -220,105 -203,193 31,157 292,-110 284,-154 30,1 65,7 94,3 20,-3 61,-15 78,-13 13,29 37,76 65,93 113,39 270,-131 329,-158 -17,65 -51,191 -62,251 -18,104 -79,83 -122,122 -118,110 -980,791 -658,1011 33,23 109,21 147,11 230,-61 496,-552 593,-743 43,-85 57,-201 93,-272 18,-38 66,-51 98,-75 44,-34 442,-390 405,-434 0,0 -378,368 -477,408 31,-74 115,-434 26,-464 -32,8 -46,61 -62,85 -32,47 -283,287 -295,130 19,-18 53,-34 77,-57 11,-11 60,-57 62,-67 -22,-11 -71,36 -102,47z"/>
   </g>
  </g>
 </g>
</svg>
